<svg width="23" height="22" viewBox="0 0 23 22" fill="none" xmlns="http://www.w3.org/2000/svg">
<g clip-path="url(#clip0_210_121)">
<path fill-rule="evenodd" clip-rule="evenodd" d="M15.9236 9.21986L11.5138 17.2701C13.2564 20.3571 14.6784 21.441 17.4721 21.3307C20.2079 21.2227 23.3577 17.5011 21.5839 14.3164L17.1675 6.48563C17.0095 7.01268 16.0864 8.88105 15.9235 9.2199M9.39822 18.933C4.57215 25.0798 -2.39025 18.2957 0.995986 13.0148C0.995986 13.0148 4.60085 6.69738 6.00275 4.23617C7.08986 2.32758 8.30776 1.12652 9.89129 0.74152C11.8223 0.272043 14.0835 1.29298 15.289 3.15495C16.1268 4.44886 16.8682 5.63321 15.5616 7.87025C15.4063 8.13597 9.70382 18.5438 9.39822 18.933M9.74258 7.56367C8.42361 6.80329 8.42361 4.892 9.74258 4.13163C11.0615 3.37125 12.7191 4.32688 12.7191 5.84763C12.7191 7.36837 11.0615 8.32404 9.74258 7.56367Z" fill="white" fill-opacity="0.75"/>
<path fill-rule="evenodd" clip-rule="evenodd" d="M15.9236 9.21986L11.5138 17.2701C13.2564 20.3571 14.6784 21.441 17.4721 21.3307C20.2079 21.2227 23.3577 17.5011 21.5839 14.3164L17.1675 6.48563C17.0095 7.01268 16.0864 8.88105 15.9235 9.2199M9.39822 18.933C4.57215 25.0798 -2.39025 18.2957 0.995986 13.0148C0.995986 13.0148 4.60085 6.69738 6.00275 4.23617C7.08986 2.32758 8.30776 1.12652 9.89129 0.74152C11.8223 0.272043 14.0835 1.29298 15.289 3.15495C16.1268 4.44886 16.8682 5.63321 15.5616 7.87025C15.4063 8.13597 9.70382 18.5438 9.39822 18.933M9.74258 7.56367C8.42361 6.80329 8.42361 4.892 9.74258 4.13163C11.0615 3.37125 12.7191 4.32688 12.7191 5.84763C12.7191 7.36837 11.0615 8.32404 9.74258 7.56367Z" fill="url(#paint0_linear_210_121)"/>
</g>
<defs>
<linearGradient id="paint0_linear_210_121" x1="11.1992" y1="16.7045" x2="11.1992" y2="9.18483" gradientUnits="userSpaceOnUse">
<stop stop-color="white" stop-opacity="0"/>
<stop offset="1" stop-color="white"/>
</linearGradient>
<clipPath id="clip0_210_121">
<rect width="22" height="22" fill="white" transform="translate(0.100098)"/>
</clipPath>
</defs>
</svg>
