<svg width="23" height="22" viewBox="0 0 23 22" fill="none" xmlns="http://www.w3.org/2000/svg">
<path d="M11.1003 1.8335C16.163 1.8335 20.2669 5.93741 20.2669 11.0002C20.2669 16.0629 16.163 20.1668 11.1003 20.1668C6.03751 20.1668 1.93359 16.0629 1.93359 11.0002C1.93359 5.93741 6.03751 1.8335 11.1003 1.8335ZM11.1003 5.50016C10.8571 5.50016 10.624 5.59674 10.4521 5.76865C10.2802 5.94056 10.1836 6.17371 10.1836 6.41683V11.0002C10.1836 11.2433 10.2803 11.4764 10.4522 11.6482L13.2022 14.3982C13.3751 14.5652 13.6066 14.6576 13.847 14.6555C14.0873 14.6534 14.3172 14.557 14.4872 14.3871C14.6571 14.2171 14.7535 13.9872 14.7556 13.7469C14.7577 13.5065 14.6653 13.275 14.4983 13.1021L12.0169 10.6207V6.41683C12.0169 6.17371 11.9204 5.94056 11.7484 5.76865C11.5765 5.59674 11.3434 5.50016 11.1003 5.50016Z" fill="white" fill-opacity="0.75"/>
<path d="M11.1003 1.8335C16.163 1.8335 20.2669 5.93741 20.2669 11.0002C20.2669 16.0629 16.163 20.1668 11.1003 20.1668C6.03751 20.1668 1.93359 16.0629 1.93359 11.0002C1.93359 5.93741 6.03751 1.8335 11.1003 1.8335ZM11.1003 5.50016C10.8571 5.50016 10.624 5.59674 10.4521 5.76865C10.2802 5.94056 10.1836 6.17371 10.1836 6.41683V11.0002C10.1836 11.2433 10.2803 11.4764 10.4522 11.6482L13.2022 14.3982C13.3751 14.5652 13.6066 14.6576 13.847 14.6555C14.0873 14.6534 14.3172 14.557 14.4872 14.3871C14.6571 14.2171 14.7535 13.9872 14.7556 13.7469C14.7577 13.5065 14.6653 13.275 14.4983 13.1021L12.0169 10.6207V6.41683C12.0169 6.17371 11.9204 5.94056 11.7484 5.76865C11.5765 5.59674 11.3434 5.50016 11.1003 5.50016Z" fill="url(#paint0_linear_211_137)"/>
<defs>
<linearGradient id="paint0_linear_211_137" x1="11.1828" y1="16.0418" x2="11.1828" y2="9.396" gradientUnits="userSpaceOnUse">
<stop stop-color="white" stop-opacity="0"/>
<stop offset="1" stop-color="white"/>
</linearGradient>
</defs>
</svg>
