<svg width="23" height="22" viewBox="0 0 23 22" fill="none" xmlns="http://www.w3.org/2000/svg">
<path d="M11.1001 15.5835C12.0168 15.5835 12.8152 15.2856 13.4953 14.6897C14.1755 14.0939 14.584 13.3529 14.7209 12.4668C14.7515 12.3141 14.7173 12.1842 14.6183 12.0772C14.5193 11.9703 14.3854 11.9168 14.2168 11.9168H7.98343C7.83065 11.9168 7.70079 11.9703 7.59385 12.0772C7.4869 12.1842 7.44871 12.3141 7.47926 12.4668C7.61676 13.3529 8.02529 14.0939 8.70485 14.6897C9.3844 15.2856 10.1828 15.5835 11.1001 15.5835ZM11.1001 20.1668C9.95426 20.1668 8.88115 19.9493 7.88076 19.5142C6.88038 19.0791 6.00954 18.4909 5.26826 17.7496C4.52699 17.0083 3.93879 16.1375 3.50368 15.1371C3.06857 14.1367 2.85071 13.0633 2.8501 11.9168V3.66683C2.8501 3.16266 3.02976 2.73122 3.3891 2.3725C3.74843 2.01377 4.17988 1.83411 4.68343 1.8335H17.5168C18.0209 1.8335 18.4527 2.01316 18.812 2.3725C19.1713 2.73183 19.3507 3.16327 19.3501 3.66683V11.9168C19.3501 13.0627 19.1325 14.1361 18.6974 15.1371C18.2623 16.1381 17.6741 17.0089 16.9328 17.7496C16.1916 18.4902 15.3207 19.0784 14.3203 19.5142C13.32 19.9499 12.2465 20.1674 11.1001 20.1668ZM11.1001 18.3335C12.8723 18.3335 14.3848 17.7071 15.6376 16.4543C16.8904 15.2016 17.5168 13.6891 17.5168 11.9168V3.66683H4.68343V11.9168C4.68343 13.6891 5.30982 15.2016 6.5626 16.4543C7.81538 17.7071 9.32788 18.3335 11.1001 18.3335ZM11.1001 18.3335C9.32788 18.3335 7.81538 17.7071 6.5626 16.4543C5.30982 15.2016 4.68343 13.6891 4.68343 11.9168V3.66683H17.5168V11.9168C17.5168 13.6891 16.8904 15.2016 15.6376 16.4543C14.3848 17.7071 12.8723 18.3335 11.1001 18.3335ZM8.3501 6.41683C7.9376 6.41683 7.5749 6.53905 7.26201 6.7835C6.94913 7.02794 6.73126 7.3335 6.60843 7.70016C6.5626 7.83766 6.58551 7.96386 6.67718 8.07875C6.76885 8.19363 6.89871 8.25077 7.06676 8.25016H9.63343C9.78621 8.25016 9.90843 8.19302 10.0001 8.07875C10.0918 7.96447 10.1223 7.83827 10.0918 7.70016C9.96954 7.3335 9.75199 7.02794 9.4391 6.7835C9.12621 6.53905 8.76321 6.41683 8.3501 6.41683ZM13.8501 6.41683C13.4376 6.41683 13.0749 6.53905 12.762 6.7835C12.4491 7.02794 12.2313 7.3335 12.1084 7.70016C12.0626 7.83766 12.0855 7.96386 12.1772 8.07875C12.2688 8.19363 12.3987 8.25077 12.5668 8.25016H15.1334C15.2862 8.25016 15.4084 8.19302 15.5001 8.07875C15.5918 7.96447 15.6223 7.83827 15.5918 7.70016C15.4695 7.3335 15.252 7.02794 14.9391 6.7835C14.6262 6.53905 14.2632 6.41683 13.8501 6.41683Z" fill="white" fill-opacity="0.75"/>
<path d="M11.1001 15.5835C12.0168 15.5835 12.8152 15.2856 13.4953 14.6897C14.1755 14.0939 14.584 13.3529 14.7209 12.4668C14.7515 12.3141 14.7173 12.1842 14.6183 12.0772C14.5193 11.9703 14.3854 11.9168 14.2168 11.9168H7.98343C7.83065 11.9168 7.70079 11.9703 7.59385 12.0772C7.4869 12.1842 7.44871 12.3141 7.47926 12.4668C7.61676 13.3529 8.02529 14.0939 8.70485 14.6897C9.3844 15.2856 10.1828 15.5835 11.1001 15.5835ZM11.1001 20.1668C9.95426 20.1668 8.88115 19.9493 7.88076 19.5142C6.88038 19.0791 6.00954 18.4909 5.26826 17.7496C4.52699 17.0083 3.93879 16.1375 3.50368 15.1371C3.06857 14.1367 2.85071 13.0633 2.8501 11.9168V3.66683C2.8501 3.16266 3.02976 2.73122 3.3891 2.3725C3.74843 2.01377 4.17988 1.83411 4.68343 1.8335H17.5168C18.0209 1.8335 18.4527 2.01316 18.812 2.3725C19.1713 2.73183 19.3507 3.16327 19.3501 3.66683V11.9168C19.3501 13.0627 19.1325 14.1361 18.6974 15.1371C18.2623 16.1381 17.6741 17.0089 16.9328 17.7496C16.1916 18.4902 15.3207 19.0784 14.3203 19.5142C13.32 19.9499 12.2465 20.1674 11.1001 20.1668ZM11.1001 18.3335C12.8723 18.3335 14.3848 17.7071 15.6376 16.4543C16.8904 15.2016 17.5168 13.6891 17.5168 11.9168V3.66683H4.68343V11.9168C4.68343 13.6891 5.30982 15.2016 6.5626 16.4543C7.81538 17.7071 9.32788 18.3335 11.1001 18.3335ZM11.1001 18.3335C9.32788 18.3335 7.81538 17.7071 6.5626 16.4543C5.30982 15.2016 4.68343 13.6891 4.68343 11.9168V3.66683H17.5168V11.9168C17.5168 13.6891 16.8904 15.2016 15.6376 16.4543C14.3848 17.7071 12.8723 18.3335 11.1001 18.3335ZM8.3501 6.41683C7.9376 6.41683 7.5749 6.53905 7.26201 6.7835C6.94913 7.02794 6.73126 7.3335 6.60843 7.70016C6.5626 7.83766 6.58551 7.96386 6.67718 8.07875C6.76885 8.19363 6.89871 8.25077 7.06676 8.25016H9.63343C9.78621 8.25016 9.90843 8.19302 10.0001 8.07875C10.0918 7.96447 10.1223 7.83827 10.0918 7.70016C9.96954 7.3335 9.75199 7.02794 9.4391 6.7835C9.12621 6.53905 8.76321 6.41683 8.3501 6.41683ZM13.8501 6.41683C13.4376 6.41683 13.0749 6.53905 12.762 6.7835C12.4491 7.02794 12.2313 7.3335 12.1084 7.70016C12.0626 7.83766 12.0855 7.96386 12.1772 8.07875C12.2688 8.19363 12.3987 8.25077 12.5668 8.25016H15.1334C15.2862 8.25016 15.4084 8.19302 15.5001 8.07875C15.5918 7.96447 15.6223 7.83827 15.5918 7.70016C15.4695 7.3335 15.252 7.02794 14.9391 6.7835C14.6262 6.53905 14.2632 6.41683 13.8501 6.41683Z" fill="url(#paint0_linear_210_110)"/>
<defs>
<linearGradient id="paint0_linear_210_110" x1="11.1744" y1="16.0418" x2="11.1744" y2="9.396" gradientUnits="userSpaceOnUse">
<stop stop-color="white" stop-opacity="0"/>
<stop offset="1" stop-color="white"/>
</linearGradient>
</defs>
</svg>
