<svg width="93" height="27" viewBox="0 0 93 27" fill="none" xmlns="http://www.w3.org/2000/svg">
<g opacity="0.45">
<g filter="url(#filter0_d_111_590)">
<path d="M9.19403 22.234C6.37823 21.9503 3.79046 20.5596 2 18.368L3.07382 17.4907C4.63162 19.3976 6.88313 20.6076 9.33303 20.8544L9.19403 22.234Z" fill="white" fill-opacity="0.65"/>
<path d="M9.19403 22.234C6.37823 21.9503 3.79046 20.5596 2 18.368L3.07382 17.4907C4.63162 19.3976 6.88313 20.6076 9.33303 20.8544L9.19403 22.234Z" fill="url(#paint0_linear_111_590)" fill-opacity="0.45"/>
<path d="M9.19403 0.999877C6.37823 1.28358 3.79046 2.67424 2 4.86592L3.07382 5.74316C4.63162 3.83628 6.88313 2.62633 9.33303 2.37949L9.19403 0.999877Z" fill="white" fill-opacity="0.65"/>
<path d="M9.19403 0.999877C6.37823 1.28358 3.79046 2.67424 2 4.86592L3.07382 5.74316C4.63162 3.83628 6.88313 2.62633 9.33303 2.37949L9.19403 0.999877Z" fill="url(#paint1_linear_111_590)" fill-opacity="0.45"/>
<path d="M18.5643 18.322C16.786 20.5235 14.2059 21.9285 11.3918 22.2278L11.2451 20.849C13.6936 20.5886 15.9384 19.3662 17.4856 17.4507L18.5643 18.322Z" fill="white" fill-opacity="0.65"/>
<path d="M18.5643 18.322C16.786 20.5235 14.2059 21.9285 11.3918 22.2278L11.2451 20.849C13.6936 20.5886 15.9384 19.3662 17.4856 17.4507L18.5643 18.322Z" fill="url(#paint2_linear_111_590)" fill-opacity="0.45"/>
<path d="M18.5643 4.91192C16.786 2.71036 14.2059 1.30538 11.3918 1.00608L11.2451 2.3849C13.6936 2.64531 15.9384 3.86772 17.4856 5.7832L18.5643 4.91192Z" fill="white" fill-opacity="0.65"/>
<path d="M18.5643 4.91192C16.786 2.71036 14.2059 1.30538 11.3918 1.00608L11.2451 2.3849C13.6936 2.64531 15.9384 3.86772 17.4856 5.7832L18.5643 4.91192Z" fill="url(#paint3_linear_111_590)" fill-opacity="0.45"/>
<path d="M10.2607 4.4209C14.2347 4.4209 17.4568 7.6423 17.457 11.6162C17.457 15.5903 14.2349 18.8125 10.2607 18.8125C6.28684 18.8122 3.06543 15.5902 3.06543 11.6162C3.06569 7.64247 6.287 4.42116 10.2607 4.4209ZM8.81445 8.47754C8.26761 8.28343 7.68935 8.65299 7.61523 9.21777C7.4084 10.8102 7.4084 12.4232 7.61523 14.0156C7.68987 14.5803 8.26765 14.95 8.81445 14.7559L9.10059 14.6543C10.6653 14.0982 12.1318 13.2972 13.4453 12.2812C13.5467 12.2027 13.6291 12.1015 13.6855 11.9863C13.742 11.8712 13.7715 11.7444 13.7715 11.6162C13.7714 11.4882 13.7419 11.362 13.6855 11.2471C13.6291 11.1319 13.5467 11.0307 13.4453 10.9521C12.1318 9.93617 10.6653 9.13518 9.10059 8.5791L8.81445 8.47754Z" fill="white" fill-opacity="0.65"/>
<path d="M10.2607 4.4209C14.2347 4.4209 17.4568 7.6423 17.457 11.6162C17.457 15.5903 14.2349 18.8125 10.2607 18.8125C6.28684 18.8122 3.06543 15.5902 3.06543 11.6162C3.06569 7.64247 6.287 4.42116 10.2607 4.4209ZM8.81445 8.47754C8.26761 8.28343 7.68935 8.65299 7.61523 9.21777C7.4084 10.8102 7.4084 12.4232 7.61523 14.0156C7.68987 14.5803 8.26765 14.95 8.81445 14.7559L9.10059 14.6543C10.6653 14.0982 12.1318 13.2972 13.4453 12.2812C13.5467 12.2027 13.6291 12.1015 13.6855 11.9863C13.742 11.8712 13.7715 11.7444 13.7715 11.6162C13.7714 11.4882 13.7419 11.362 13.6855 11.2471C13.6291 11.1319 13.5467 11.0307 13.4453 10.9521C12.1318 9.93617 10.6653 9.13518 9.10059 8.5791L8.81445 8.47754Z" fill="url(#paint4_linear_111_590)" fill-opacity="0.45"/>
</g>
<path d="M29 13.5L33 9.5M29 9.5L33 13.5" stroke="white" stroke-opacity="0.45" stroke-linecap="round"/>
<g filter="url(#filter1_d_111_590)">
<path d="M43.0658 11.3709C43.1768 11.0218 44.2558 10.2125 47.9527 7.68948C50.5549 5.91226 52.7604 4.5 52.8397 4.53174C52.9349 4.57934 52.9984 5.2934 52.9825 6.11854C52.9667 7.5308 52.9508 7.62601 52.5224 8.05445C52.2844 8.29247 51.1102 9.14934 49.9044 9.95861C48.3494 11.0059 47.7465 11.4978 47.7782 11.7041C47.7941 11.8469 48.8572 12.6879 50.19 13.6083C51.5069 14.4969 52.6652 15.3538 52.7763 15.5124C52.9032 15.687 52.9667 16.3058 52.9667 17.2579C52.9667 18.0672 52.9032 18.7495 52.808 18.7971C52.7287 18.8447 50.5549 17.4483 48.0162 15.7029C45.4616 13.9574 43.272 12.3706 43.1451 12.1801C42.9864 11.9104 42.9547 11.6882 43.0658 11.3709Z" fill="white" fill-opacity="0.65" shape-rendering="crispEdges"/>
<path d="M43.0658 11.3709C43.1768 11.0218 44.2558 10.2125 47.9527 7.68948C50.5549 5.91226 52.7604 4.5 52.8397 4.53174C52.9349 4.57934 52.9984 5.2934 52.9825 6.11854C52.9667 7.5308 52.9508 7.62601 52.5224 8.05445C52.2844 8.29247 51.1102 9.14934 49.9044 9.95861C48.3494 11.0059 47.7465 11.4978 47.7782 11.7041C47.7941 11.8469 48.8572 12.6879 50.19 13.6083C51.5069 14.4969 52.6652 15.3538 52.7763 15.5124C52.9032 15.687 52.9667 16.3058 52.9667 17.2579C52.9667 18.0672 52.9032 18.7495 52.808 18.7971C52.7287 18.8447 50.5549 17.4483 48.0162 15.7029C45.4616 13.9574 43.272 12.3706 43.1451 12.1801C42.9864 11.9104 42.9547 11.6882 43.0658 11.3709Z" fill="url(#paint5_linear_111_590)" fill-opacity="0.45" shape-rendering="crispEdges"/>
<path d="M61.2016 6.00747C61.1857 5.26167 61.2174 4.59521 61.2809 4.5476C61.3602 4.48413 61.4872 4.48413 61.5982 4.5476C61.6934 4.59521 63.772 6.00747 66.2155 7.65774C68.659 9.30802 70.7851 10.8155 70.9438 11.0059C71.1025 11.1805 71.2294 11.5137 71.2294 11.7358C71.2294 11.958 71.0549 12.2754 70.8645 12.4658C70.6582 12.6562 68.4844 14.1637 66.0251 15.8298C63.5498 17.5118 61.4713 18.8447 61.3761 18.7971C61.2968 18.7495 61.2174 18.1148 61.2174 17.369C61.2174 16.6232 61.2968 15.8615 61.3761 15.6711C61.4713 15.4648 62.6613 14.5604 64.01 13.64C65.9299 12.3388 66.4535 11.9104 66.4217 11.6565C66.39 11.4502 65.5491 10.7679 63.9941 9.70472C62.693 8.81611 61.5348 7.91163 61.4237 7.72122C61.3126 7.5308 61.2174 6.75327 61.2016 6.00747Z" fill="white" fill-opacity="0.65" shape-rendering="crispEdges"/>
<path d="M61.2016 6.00747C61.1857 5.26167 61.2174 4.59521 61.2809 4.5476C61.3602 4.48413 61.4872 4.48413 61.5982 4.5476C61.6934 4.59521 63.772 6.00747 66.2155 7.65774C68.659 9.30802 70.7851 10.8155 70.9438 11.0059C71.1025 11.1805 71.2294 11.5137 71.2294 11.7358C71.2294 11.958 71.0549 12.2754 70.8645 12.4658C70.6582 12.6562 68.4844 14.1637 66.0251 15.8298C63.5498 17.5118 61.4713 18.8447 61.3761 18.7971C61.2968 18.7495 61.2174 18.1148 61.2174 17.369C61.2174 16.6232 61.2968 15.8615 61.3761 15.6711C61.4713 15.4648 62.6613 14.5604 64.01 13.64C65.9299 12.3388 66.4535 11.9104 66.4217 11.6565C66.39 11.4502 65.5491 10.7679 63.9941 9.70472C62.693 8.81611 61.5348 7.91163 61.4237 7.72122C61.3126 7.5308 61.2174 6.75327 61.2016 6.00747Z" fill="url(#paint6_linear_111_590)" fill-opacity="0.45" shape-rendering="crispEdges"/>
<path d="M75.5452 5.51556C75.5293 5.43622 75.5452 5.27754 75.5928 5.13472C75.6721 4.92844 75.9101 4.8967 77.0208 4.92844C78.0839 4.97604 78.4012 5.05538 78.6709 5.30927C78.8455 5.48382 79.8927 7.22931 81.0034 9.19695C82.2251 11.3391 83.1295 12.7673 83.2723 12.7673C83.4151 12.7673 84.3354 11.3233 85.573 9.16521C86.7154 7.1817 87.7626 5.43622 87.9213 5.27754C88.1276 5.05538 88.5243 4.97604 89.508 4.92844C90.46 4.8967 90.8567 4.92844 90.9836 5.08712C91.1264 5.26167 90.3648 6.68979 87.5405 11.5772C85.5413 15.0205 83.7801 17.9085 83.6373 17.9879C83.4786 18.0513 83.2089 18.0831 83.0343 18.0355C82.8122 17.972 81.6063 16.0202 79.1628 11.7834C77.2112 8.40354 75.5769 5.57903 75.5452 5.51556Z" fill="white" fill-opacity="0.65" shape-rendering="crispEdges"/>
<path d="M75.5452 5.51556C75.5293 5.43622 75.5452 5.27754 75.5928 5.13472C75.6721 4.92844 75.9101 4.8967 77.0208 4.92844C78.0839 4.97604 78.4012 5.05538 78.6709 5.30927C78.8455 5.48382 79.8927 7.22931 81.0034 9.19695C82.2251 11.3391 83.1295 12.7673 83.2723 12.7673C83.4151 12.7673 84.3354 11.3233 85.573 9.16521C86.7154 7.1817 87.7626 5.43622 87.9213 5.27754C88.1276 5.05538 88.5243 4.97604 89.508 4.92844C90.46 4.8967 90.8567 4.92844 90.9836 5.08712C91.1264 5.26167 90.3648 6.68979 87.5405 11.5772C85.5413 15.0205 83.7801 17.9085 83.6373 17.9879C83.4786 18.0513 83.2089 18.0831 83.0343 18.0355C82.8122 17.972 81.6063 16.0202 79.1628 11.7834C77.2112 8.40354 75.5769 5.57903 75.5452 5.51556Z" fill="url(#paint7_linear_111_590)" fill-opacity="0.45" shape-rendering="crispEdges"/>
</g>
</g>
<defs>
<filter id="filter0_d_111_590" x="0" y="1" width="20.5645" height="25.2339" filterUnits="userSpaceOnUse" color-interpolation-filters="sRGB">
<feFlood flood-opacity="0" result="BackgroundImageFix"/>
<feColorMatrix in="SourceAlpha" type="matrix" values="0 0 0 0 0 0 0 0 0 0 0 0 0 0 0 0 0 0 127 0" result="hardAlpha"/>
<feOffset dy="2"/>
<feGaussianBlur stdDeviation="1"/>
<feComposite in2="hardAlpha" operator="out"/>
<feColorMatrix type="matrix" values="0 0 0 0 0 0 0 0 0 0 0 0 0 0 0 0 0 0 0.35 0"/>
<feBlend mode="normal" in2="BackgroundImageFix" result="effect1_dropShadow_111_590"/>
<feBlend mode="normal" in="SourceGraphic" in2="effect1_dropShadow_111_590" result="shape"/>
</filter>
<filter id="filter1_d_111_590" x="41" y="4.5" width="52" height="18.2983" filterUnits="userSpaceOnUse" color-interpolation-filters="sRGB">
<feFlood flood-opacity="0" result="BackgroundImageFix"/>
<feColorMatrix in="SourceAlpha" type="matrix" values="0 0 0 0 0 0 0 0 0 0 0 0 0 0 0 0 0 0 127 0" result="hardAlpha"/>
<feOffset dy="2"/>
<feGaussianBlur stdDeviation="1"/>
<feComposite in2="hardAlpha" operator="out"/>
<feColorMatrix type="matrix" values="0 0 0 0 0 0 0 0 0 0 0 0 0 0 0 0 0 0 0.35 0"/>
<feBlend mode="normal" in2="BackgroundImageFix" result="effect1_dropShadow_111_590"/>
<feBlend mode="normal" in="SourceGraphic" in2="effect1_dropShadow_111_590" result="shape"/>
</filter>
<linearGradient id="paint0_linear_111_590" x1="5.69955" y1="21.1668" x2="5.69955" y2="19.4473" gradientUnits="userSpaceOnUse">
<stop stop-color="white" stop-opacity="0"/>
<stop offset="1" stop-color="white"/>
</linearGradient>
<linearGradient id="paint1_linear_111_590" x1="5.69955" y1="2.06712" x2="5.69955" y2="3.78656" gradientUnits="userSpaceOnUse">
<stop stop-color="white" stop-opacity="0"/>
<stop offset="1" stop-color="white"/>
</linearGradient>
<linearGradient id="paint2_linear_111_590" x1="14.9377" y1="21.153" x2="14.9377" y2="19.4212" gradientUnits="userSpaceOnUse">
<stop stop-color="white" stop-opacity="0"/>
<stop offset="1" stop-color="white"/>
</linearGradient>
<linearGradient id="paint3_linear_111_590" x1="14.9377" y1="2.08093" x2="14.9377" y2="3.81264" gradientUnits="userSpaceOnUse">
<stop stop-color="white" stop-opacity="0"/>
<stop offset="1" stop-color="white"/>
</linearGradient>
<linearGradient id="paint4_linear_111_590" x1="10.3261" y1="15.5744" x2="10.3261" y2="10.3574" gradientUnits="userSpaceOnUse">
<stop stop-color="white" stop-opacity="0"/>
<stop offset="1" stop-color="white"/>
</linearGradient>
<linearGradient id="paint5_linear_111_590" x1="67.2162" y1="15.5812" x2="67.2162" y2="10.3981" gradientUnits="userSpaceOnUse">
<stop stop-color="white" stop-opacity="0"/>
<stop offset="1" stop-color="white"/>
</linearGradient>
<linearGradient id="paint6_linear_111_590" x1="67.2162" y1="15.5812" x2="67.2162" y2="10.3981" gradientUnits="userSpaceOnUse">
<stop stop-color="white" stop-opacity="0"/>
<stop offset="1" stop-color="white"/>
</linearGradient>
<linearGradient id="paint7_linear_111_590" x1="67.2162" y1="15.5812" x2="67.2162" y2="10.3981" gradientUnits="userSpaceOnUse">
<stop stop-color="white" stop-opacity="0"/>
<stop offset="1" stop-color="white"/>
</linearGradient>
</defs>
</svg>
