<svg width="20" height="20" viewBox="0 0 20 20" fill="none" xmlns="http://www.w3.org/2000/svg">
<path d="M12.7246 6.32378L11.0903 1.29395C10.7473 0.238282 9.25384 0.238278 8.91084 1.29395L7.27655 6.32378H1.98787C0.877876 6.32378 0.416365 7.74417 1.31437 8.39661L5.593 11.5052L3.95871 16.535C3.6157 17.5907 4.82396 18.4686 5.72196 17.8161L10.0006 14.7075L14.2792 17.8161C15.1772 18.4686 16.3855 17.5907 16.0425 16.535L14.4082 11.5052L18.6868 8.39661C19.5848 7.74417 19.1233 6.32378 18.0133 6.32378H12.7246Z" fill="#FFD722"/>
<path d="M12.7246 6.32378L11.0903 1.29395C10.7473 0.238282 9.25384 0.238278 8.91084 1.29395L7.27655 6.32378H1.98787C0.877876 6.32378 0.416365 7.74417 1.31437 8.39661L5.593 11.5052L3.95871 16.535C3.6157 17.5907 4.82396 18.4686 5.72196 17.8161L10.0006 14.7075L14.2792 17.8161C15.1772 18.4686 16.3855 17.5907 16.0425 16.535L14.4082 11.5052L18.6868 8.39661C19.5848 7.74417 19.1233 6.32378 18.0133 6.32378H12.7246Z" fill="url(#paint0_linear_14_85)" fill-opacity="0.35"/>
<defs>
<linearGradient id="paint0_linear_14_85" x1="10.0831" y1="14.0941" x2="10.0831" y2="7.7366" gradientUnits="userSpaceOnUse">
<stop stop-color="white" stop-opacity="0"/>
<stop offset="1" stop-color="white"/>
</linearGradient>
</defs>
</svg>
