<svg width="20" height="20" viewBox="0 0 20 20" fill="none" xmlns="http://www.w3.org/2000/svg">
<path d="M8.21664 1.76105C8.77817 0.0341281 11.2216 0.0340277 11.783 1.76105L13.0819 5.75812H17.284C19.1003 5.75826 19.855 8.08213 18.3856 9.14972L14.9862 11.6204L16.285 15.6165C16.8463 17.344 14.8687 18.7808 13.3993 17.7132L9.99984 15.2435L6.59945 17.7132C5.13 18.7806 3.15342 17.3439 3.71468 15.6165L5.01254 11.6204L1.61312 9.14972C0.143958 8.08202 0.899395 5.75812 2.71566 5.75812H6.91781L8.21664 1.76105ZM9.99984 2.1214C9.91657 2.1216 9.83274 2.16925 9.8016 2.26495L8.17562 7.26984C8.14765 7.35552 8.06754 7.41339 7.97738 7.41339H2.71566C2.51388 7.41344 2.43033 7.67173 2.59359 7.79034L6.85043 10.8831C6.92345 10.9362 6.95351 11.0307 6.92562 11.1165L5.29965 16.1204C5.23728 16.3124 5.45766 16.4724 5.62093 16.3538L9.87777 13.261C9.91413 13.2346 9.95704 13.2211 9.99984 13.221V13.2318C10.0426 13.2319 10.0856 13.2455 10.1219 13.2718L14.3787 16.3646C14.542 16.4831 14.7621 16.324 14.7 16.1321L13.0741 11.1273C13.0463 11.0415 13.0764 10.9479 13.1493 10.8948L17.4061 7.80206C17.5693 7.68347 17.4857 7.42525 17.284 7.42511H12.0223C11.932 7.42511 11.8519 7.36642 11.8241 7.28058L10.1981 2.27667C10.167 2.18091 10.0831 2.13234 9.99984 2.13214V2.1214Z" fill="#FFD722"/>
<path d="M8.21664 1.76105C8.77817 0.0341281 11.2216 0.0340277 11.783 1.76105L13.0819 5.75812H17.284C19.1003 5.75826 19.855 8.08213 18.3856 9.14972L14.9862 11.6204L16.285 15.6165C16.8463 17.344 14.8687 18.7808 13.3993 17.7132L9.99984 15.2435L6.59945 17.7132C5.13 18.7806 3.15342 17.3439 3.71468 15.6165L5.01254 11.6204L1.61312 9.14972C0.143958 8.08202 0.899395 5.75812 2.71566 5.75812H6.91781L8.21664 1.76105ZM9.99984 2.1214C9.91657 2.1216 9.83274 2.16925 9.8016 2.26495L8.17562 7.26984C8.14765 7.35552 8.06754 7.41339 7.97738 7.41339H2.71566C2.51388 7.41344 2.43033 7.67173 2.59359 7.79034L6.85043 10.8831C6.92345 10.9362 6.95351 11.0307 6.92562 11.1165L5.29965 16.1204C5.23728 16.3124 5.45766 16.4724 5.62093 16.3538L9.87777 13.261C9.91413 13.2346 9.95704 13.2211 9.99984 13.221V13.2318C10.0426 13.2319 10.0856 13.2455 10.1219 13.2718L14.3787 16.3646C14.542 16.4831 14.7621 16.324 14.7 16.1321L13.0741 11.1273C13.0463 11.0415 13.0764 10.9479 13.1493 10.8948L17.4061 7.80206C17.5693 7.68347 17.4857 7.42525 17.284 7.42511H12.0223C11.932 7.42511 11.8519 7.36642 11.8241 7.28058L10.1981 2.27667C10.167 2.18091 10.0831 2.13234 9.99984 2.13214V2.1214Z" fill="url(#paint0_linear_71_17)" fill-opacity="0.35"/>
<defs>
<linearGradient id="paint0_linear_71_17" x1="10.0808" y1="14.3553" x2="10.0808" y2="7.97015" gradientUnits="userSpaceOnUse">
<stop stop-color="white" stop-opacity="0"/>
<stop offset="1" stop-color="white"/>
</linearGradient>
</defs>
</svg>
