<svg width="24" height="24" viewBox="0 0 24 24" fill="none" xmlns="http://www.w3.org/2000/svg">
<g clip-path="url(#clip0_111_560)">
<g filter="url(#filter0_d_111_560)">
<path d="M1 5H4M7.5 5H10.5M13.5 5H16.5M20 5H23M2.5 5L8.5 20L14.5 5M9.5 5L15.5 20L21.5 5" stroke="white" stroke-opacity="0.65" stroke-width="2" stroke-linecap="round" stroke-linejoin="round" shape-rendering="crispEdges"/>
<path d="M1 5H4M7.5 5H10.5M13.5 5H16.5M20 5H23M2.5 5L8.5 20L14.5 5M9.5 5L15.5 20L21.5 5" stroke="url(#paint0_linear_111_560)" stroke-opacity="0.45" stroke-width="2" stroke-linecap="round" stroke-linejoin="round" shape-rendering="crispEdges"/>
</g>
</g>
<defs>
<filter id="filter0_d_111_560" x="-2" y="3.99951" width="28" height="21.0005" filterUnits="userSpaceOnUse" color-interpolation-filters="sRGB">
<feFlood flood-opacity="0" result="BackgroundImageFix"/>
<feColorMatrix in="SourceAlpha" type="matrix" values="0 0 0 0 0 0 0 0 0 0 0 0 0 0 0 0 0 0 127 0" result="hardAlpha"/>
<feOffset dy="2"/>
<feGaussianBlur stdDeviation="1"/>
<feComposite in2="hardAlpha" operator="out"/>
<feColorMatrix type="matrix" values="0 0 0 0 0 0 0 0 0 0 0 0 0 0 0 0 0 0 0.35 0"/>
<feBlend mode="normal" in2="BackgroundImageFix" result="effect1_dropShadow_111_560"/>
<feBlend mode="normal" in="SourceGraphic" in2="effect1_dropShadow_111_560" result="shape"/>
</filter>
<linearGradient id="paint0_linear_111_560" x1="12.0991" y1="16.625" x2="12.0991" y2="11.1875" gradientUnits="userSpaceOnUse">
<stop stop-color="white" stop-opacity="0"/>
<stop offset="1" stop-color="white"/>
</linearGradient>
<clipPath id="clip0_111_560">
<rect width="24" height="24" fill="white"/>
</clipPath>
</defs>
</svg>
